{"title":"Vanishing.On.7th.Street.R5.XViD-TRiPOLi","uid":6245714,"size":748602944,"categoryP":"video","categoryS":"movies","magnet":"?xt=urn:btih:f2475da3371963d1df3d66ab88e7981d0af5aaaa&amp;dn=Vanishing.On.7th.Street.R5.XViD-TRiPOLi&amp;tr=udp%3A%2F%2Ftracker.openbittorrent.com%3A80&amp;tr=udp%3A%2F%2Fopen.demonii.com%3A1337&amp;tr=udp%3A%2F%2Ftracker.coppersurfer.tk%3A6969&amp;tr=udp%3A%2F%2Fexodus.desync.com%3A6969","seeders":0,"leechers":0,"uploader":"sceneline","files":55,"time":1300229353,"description":"-\nhttp:// www . torrentkit. com        \nhttp:// www .torrentkit. com       the fast  and The Hottest Private Tracker on the net\n\nPlease Seed back to make the speed Faster!!!\n\nand don't forget to visit      ...... www .torrentkit .com..........\n-Vanishing on 7th Street (2010)\n &lt;a href=&quot;\nhttp://www.imdb.com/title/tt1452628/&quot; rel=&quot;nofollow&quot; target=&quot;_NEW&quot;&gt;\nhttp://www.imdb.com/title/tt1452628/&lt;/a&gt;\n\nRIP Kadaf!\n\nSource                           : R5 DVD\n\nVideo\nID                               : 0\nFormat                           : MPEG-4 Visual\nFormat profile                   : Advanced Simple@L5\nFormat settings, BVOP            : Yes\nFormat settings, QPel            : No\nFormat settings, GMC             : No warppoints\nFormat settings, Matrix          : Default (H.263)\nCodec ID                         : XVID\nCodec ID/Hint                    : XviD\nDuration                         : 1h 27mn\nBit rate                         : 763 Kbps\nWidth                            : 608 pixels\nHeight                           : 256 pixels\nDisplay aspect ratio             : 2.35:1\nFrame rate                       : 25.000 fps\nColor space                      : YUV\nChroma subsampling               : 4:2:0\nBit depth                        : 8 bits\nScan type                        : Progressive\nBits/(Pixel*Frame)               : 0.170\nStream size                      : 415 MiB (59%)\nWriting library                  : XviD 1.2.2\n\nAudio\nID                               : 1\nFormat                           : AC-3 STUDIO\nFormat/Info                      : Audio Coding 3\nMode extension                   : CM (complete main)\nCodec ID                         : 2000\nDuration                         : 1h 27mn\nBit rate mode                    : Constant\nBit rate                         : 448 Kbps\nChannel(s)                       : 6 channels\nChannel positions                : Front: L C R, Side: L R, LFE\nSampling rate                    : 48.0 KHz\nBit depth                        : 16 bits\nStream size                      : 281 MiB (40%)\nAlignment                        : Split accross interleaves\nInterleave, duration             : 40 ms (1.00 video frame)\nInterleave, preload duration     : 500 ms","torrent":{"xt":"urn:btih:f2475da3371963d1df3d66ab88e7981d0af5aaaa","amp;dn":"Vanishing.On.7th.Street.R5.XViD-TRiPOLi","amp;tr":["udp%3A%2F%2Ftracker.openbittorrent.com%3A80","udp%3A%2F%2Fopen.demonii.com%3A1337","udp%3A%2F%2Ftracker.coppersurfer.tk%3A6969","udp%3A%2F%2Fexodus.desync.com%3A6969"],"infoHash":"f2475da3371963d1df3d66ab88e7981d0af5aaaa","infoHashBuffer":{"type":"Buffer","data":[242,71,93,163,55,25,99,209,223,61,102,171,136,231,152,29,10,245,170,170]},"announce":[],"urlList":[]}}